<svg id="레이어_1" data-name="레이어 1" xmlns="http://www.w3.org/2000/svg" viewBox="0 0 148 210"><defs><style>.cls-1{fill:#f2e6dc;}.cls-2{fill:"content";}</style></defs><g id="_2번" data-name="2번"><rect class="cls-1" width="148" height="210"/><path class="cls-2" d="M35.24,79.38C27.92,85.74,27,88.5,27,91.26c0,1.8.72,3.12,2.52,3.12s4.32,2.4,4.32,5.76a6.18,6.18,0,0,1-5.88,6.12c-3.6,0-6.72-2.28-6.72-7.92,0-9.48,6-15.24,12.6-20.4Zm16.68,0c-7.32,6.36-8.28,9.12-8.28,11.88,0,1.8.72,3.12,2.52,3.12s4.44,2.4,4.44,5.76a6.29,6.29,0,0,1-6,6.12c-3.6,0-6.72-2.28-6.72-7.92,0-9.48,6-15.24,12.72-20.4Z"/><path class="cls-2" d="M98.55,185.93c7.32-6.36,8.28-9.12,8.28-11.88,0-1.8-.72-3.12-2.52-3.12s-4.44-2.4-4.44-5.76a6.29,6.29,0,0,1,6-6.12c3.6,0,6.72,2.28,6.72,7.92,0,9.48-6,15.24-12.72,20.4Zm16.68,0c7.32-6.36,8.28-9.12,8.28-11.88,0-1.8-.72-3.12-2.52-3.12s-4.32-2.4-4.32-5.76a6.18,6.18,0,0,1,5.88-6.12c3.6,0,6.72,2.28,6.72,7.92,0,9.48-6,15.24-12.6,20.4Z"/></g></svg>
